<?xml version="1.0" encoding="iso-8859-1"?>
<!-- Generator: Adobe Illustrator 19.0.0, SVG Export Plug-In . SVG Version: 6.00 Build 0)  -->
<svg version="1.1" id="Capa_1" xmlns="http://www.w3.org/2000/svg" xmlns:xlink="http://www.w3.org/1999/xlink" x="0px" y="0px"
	 viewBox="0 0 512 512" style="enable-background:new 0 0 512 512;" xml:space="preserve">
<g>
	<g>
		<path d="M376,151c-39.185,0-136-5.486-136-45v60c0,42.9,113.5,45,136,45s136-2.1,136-45v-60C512,145.514,415.185,151,376,151z"/>
	</g>
</g>
<g>
	<g>
		<path d="M376,31c-22.544,0-136,2.168-136,45c0,42.832,113.456,45,136,45s136-2.168,136-45C512,33.168,398.544,31,376,31z"/>
	</g>
</g>
<g>
	<g>
		<path d="M376,241c-39.185,0-136-5.486-136-45v22.82c23.293,19.265,41.085,44.854,51.053,74.037
			C323.956,300.324,363.763,301,376,301c22.5,0,136-2.1,136-45v-60C512,235.514,415.185,241,376,241z"/>
	</g>
</g>
<g>
	<g>
		<path d="M376,331c-11.353,0-46.491-0.524-77.571-6.539C299.357,331.529,300,338.683,300,346c0,13.026-1.675,25.644-4.543,37.808
			C327.343,390.376,364.307,391,376,391c22.5,0,136-2.1,136-45v-60C512,325.514,415.185,331,376,331z"/>
	</g>
</g>
<g>
	<g>
		<path d="M376,421c-12.87,0-55.932-0.738-89.713-9.333c-7.679,17.622-18.402,33.582-31.419,47.375
			C286.104,479.643,358.543,481,376,481c22.5,0,136-2.1,136-45v-60C512,415.514,415.185,421,376,421z"/>
	</g>
</g>
<g>
	<g>
		<path d="M135,211C60.557,211,0,271.557,0,346s60.557,135,135,135s135-60.557,135-135S209.443,211,135,211z M150.396,418.29
			c-0.13,0.048-0.266,0.026-0.396,0.071V436c0,8.291-6.709,15-15,15s-15-6.709-15-15v-17.741
			c-9.879-3.338-19.345-9.672-27.437-19.319c-5.332-6.343-4.512-15.806,1.846-21.123c6.343-5.317,15.835-4.482,21.123,1.846
			c7.939,9.434,16.963,13.242,24.595,10.444C146.03,387.953,150,382.284,150,376c0-8.276-6.724-15-15-15c-24.814,0-45-20.186-45-45
			c0-17.686,9.998-34.92,30-42.085V256c0-8.291,6.709-15,15-15s15,6.709,15,15v17.941c7.771,2.626,15.348,6.799,22.104,13.348
			c5.947,5.757,6.094,15.249,0.322,21.211c-5.742,5.947-15.264,6.079-21.211,0.322c-7.295-7.061-15.352-9.492-22.046-6.65
			C123.604,304.53,120,309.95,120,316c0,8.276,6.724,15,15,15c24.814,0,45,20.186,45,45C180,394.853,168.105,411.845,150.396,418.29
			z"/>
	</g>
</g>
<g>
</g>
<g>
</g>
<g>
</g>
<g>
</g>
<g>
</g>
<g>
</g>
<g>
</g>
<g>
</g>
<g>
</g>
<g>
</g>
<g>
</g>
<g>
</g>
<g>
</g>
<g>
</g>
<g>
</g>
</svg>
