<svg height="480pt" viewBox="-56 0 480 480" width="480pt" xmlns="http://www.w3.org/2000/svg"><path d="m336 60.6875-60.6875-60.6875h-275.3125v456h336zm-56-33.375 28.6875 28.6875h-28.6875zm-264 412.6875v-424h248v56h56v368zm0 0"/><path d="m320 16v16h32v432h-328v16h344v-464zm0 0"/><path d="m48 168h240v-88h-240zm16-72h208v56h-208zm0 0"/><path d="m48 192h240v16h-240zm0 0"/><path d="m176 368h112v-136h-112zm16-120h80v104h-80zm0 0"/><path d="m48 232h104v16h-104zm0 0"/><path d="m48 272h104v16h-104zm0 0"/><path d="m48 312h104v16h-104zm0 0"/><path d="m48 352h104v16h-104zm0 0"/></svg>